<?xml version="1.0" encoding="UTF-8" standalone="no"?>
<!DOCTYPE svg PUBLIC "-//W3C//DTD SVG 1.1//EN" "http://www.w3.org/Graphics/SVG/1.1/DTD/svg11.dtd">
<svg width="100%" height="100%" viewBox="0 0 185 185" version="1.1" xmlns="http://www.w3.org/2000/svg" xmlns:xlink="http://www.w3.org/1999/xlink" xml:space="preserve" xmlns:serif="http://www.serif.com/" style="fill-rule:evenodd;clip-rule:evenodd;stroke-linejoin:round;stroke-miterlimit:2;">
    <g id="Artboard1" transform="matrix(0.929492,0,0,0.982234,-139.424,-235.736)">
        <rect x="150" y="240" width="198.264" height="187.582" style="fill:none;"/>
        <clipPath id="_clip1">
            <rect x="150" y="240" width="198.264" height="187.582"/>
        </clipPath>
        <g clip-path="url(#_clip1)">
            <g transform="matrix(1.07586,0,0,1.01809,150,240)">
                <g id="Layer-1" serif:id="Layer 1">
                    <path d="M0.582,161.047C19.767,165.554 39.143,169.361 58.779,170.286C72.245,170.92 86.916,170.621 98.482,163.111C109.084,156.227 112.475,143.941 111.71,132.258C110.698,116.81 104.953,101.804 100.739,86.575C96.826,72.434 92.979,58.063 98.291,46.183C101.371,39.295 107.96,35.015 114.718,32.509C115.605,32.18 116.502,31.876 117.405,31.594C118.579,31.227 119.765,30.896 120.958,30.597C141.48,25.448 162.969,26.633 184.285,29.369L184.285,155.43C184.285,171.336 171.372,184.249 155.466,184.249L28.852,184.249C14.868,184.249 3.198,174.268 0.582,161.047ZM155.466,-0.003C166.363,-0.002 175.855,6.058 180.752,14.989C171.002,14.027 161.227,13.433 151.44,13.397C145.367,13.39 139.323,13.602 133.296,14.201C118.884,15.633 104.107,19.115 93.776,28.683C83.799,37.922 80.879,52.173 82.027,65.24C83.451,81.451 89.229,97.004 93.556,112.769C96.033,121.795 98.643,131.066 97.401,140.133C95.898,151.104 85.573,154.581 76.142,155.714C50.359,158.811 24.951,152.281 0.033,146.35L0.033,28.816C0.033,12.911 12.946,-0.002 28.852,-0.003L155.466,-0.003Z" style="fill:rgb(6,121,159);"/>
                </g>
            </g>
        </g>
    </g>
</svg>
